HIERARCHY
ROOT Hips
{
	OFFSET 0.000000 0.000000 0.000000
	CHANNELS 6 Xposition Yposition Zposition Xrotation Yrotation Zrotation
	JOINT LeftUpLeg_virtual
	{
		OFFSET 0.000000 0.000000 0.000000
		CHANNELS 3 Xrotation Yrotation Zrotation
		JOINT LeftUpLeg
		{
			OFFSET 10.205400 -3.823500 0.155100
			CHANNELS 3 Xrotation Yrotation Zrotation
			JOINT LeftLeg
			{
				OFFSET 0.708757 -12.982077 0.567790
				CHANNELS 3 Xrotation Yrotation Zrotation
				JOINT LeftFoot
				{
					OFFSET -0.708756 -10.717838 -2.184338
					CHANNELS 3 Xrotation Yrotation Zrotation
					JOINT LeftToeBase
					{
						OFFSET 0.108149 -7.191104 7.560241
						CHANNELS 3 Xrotation Yrotation Zrotation
						JOINT LeftToe_End
						{
							OFFSET 0.070230 0.081724 4.490308
							CHANNELS 3 Xrotation Yrotation Zrotation
							End Site
							{
								OFFSET 0 0 0
							}
						}
					}
				}
			}
		}
	}
	JOINT RightUpLeg_virtual
	{
		OFFSET 0.000000 0.000000 0.000000
		CHANNELS 3 Xrotation Yrotation Zrotation
		JOINT RightUpLeg
		{
			OFFSET -10.205400 -3.823500 0.005500
			CHANNELS 3 Xrotation Yrotation Zrotation
			JOINT RightLeg
			{
				OFFSET -0.708756 -12.982134 0.610632
				CHANNELS 3 Xrotation Yrotation Zrotation
				JOINT RightFoot
				{
					OFFSET 0.708754 -10.717769 -1.945823
					CHANNELS 3 Xrotation Yrotation Zrotation
					JOINT RightToeBase
					{
						OFFSET -0.108140 -7.191069 7.372968
						CHANNELS 3 Xrotation Yrotation Zrotation
						JOINT RightToe_End
						{
							OFFSET -0.070227 0.081735 4.479403
							CHANNELS 3 Xrotation Yrotation Zrotation
							End Site
							{
								OFFSET 0 0 0
							}
						}
					}
				}
			}
		}
	}
	JOINT Spine_virtual
	{
		OFFSET 0.000000 0.000000 0.000000
		CHANNELS 3 Xrotation Yrotation Zrotation
		JOINT Spine
		{
			OFFSET 0.000000 6.876099 0.125700
			CHANNELS 3 Xrotation Yrotation Zrotation
			JOINT Spine1
			{
				OFFSET 0.000000 5.730043 0.104720
				CHANNELS 3 Xrotation Yrotation Zrotation
				JOINT Spine1_split
				{
					OFFSET 0.000000 5.730043 0.104720
					CHANNELS 3 Xrotation Yrotation Zrotation
					JOINT Spine2
					{
						OFFSET 0.000000 5.730043 0.104720
						CHANNELS 3 Xrotation Yrotation Zrotation
						JOINT Neck_virtual
						{
							OFFSET 0.000000 0.000000 0.000000
							CHANNELS 3 Xrotation Yrotation Zrotation
							JOINT Neck
							{
								OFFSET 0.000000 10.314075 0.188496
								CHANNELS 3 Xrotation Yrotation Zrotation
								JOINT Head
								{
									OFFSET 0.000000 7.643700 -2.377400
									CHANNELS 3 Xrotation Yrotation Zrotation
									JOINT HeadTop_End
									{
										OFFSET 0.000000 43.788605 -13.619600
										CHANNELS 3 Xrotation Yrotation Zrotation
										End Site
										{
											OFFSET 0 0 0
										}
									}
								}
							}
						}
						JOINT LeftShoulder_virtual
						{
							OFFSET 0.000000 0.000000 0.000000
							CHANNELS 3 Xrotation Yrotation Zrotation
							JOINT LeftShoulder
							{
								OFFSET 2.196100 4.412489 0.087492
								CHANNELS 3 Xrotation Yrotation Zrotation
								JOINT LeftShoulder_split
								{
									OFFSET 2.196100 4.412489 0.087492
									CHANNELS 3 Xrotation Yrotation Zrotation
									JOINT LeftArm
									{
										OFFSET 8.771219 -2.981674 -0.026999
										CHANNELS 3 Xrotation Yrotation Zrotation
										JOINT LeftForeArm
										{
											OFFSET 8.512804 0.000000 -0.000000
											CHANNELS 3 Xrotation Yrotation Zrotation
											JOINT LeftHand
											{
												OFFSET 18.484802 0.000000 -0.000000
												CHANNELS 3 Xrotation Yrotation Zrotation
												End Site
												{
													OFFSET 0 0 0
												}
											}
										}
									}
								}
							}
						}
						JOINT RightShoulder_virtual
						{
							OFFSET 0.000000 0.000000 0.000000
							CHANNELS 3 Xrotation Yrotation Zrotation
							JOINT RightShoulder
							{
								OFFSET -2.196100 4.412496 0.070690
								CHANNELS 3 Xrotation Yrotation Zrotation
								JOINT RightShoulder_split
								{
									OFFSET -2.196100 4.412496 0.070690
									CHANNELS 3 Xrotation Yrotation Zrotation
									JOINT RightArm
									{
										OFFSET -8.771282 -2.981682 -0.094208
										CHANNELS 3 Xrotation Yrotation Zrotation
										JOINT RightForeArm
										{
											OFFSET -8.494598 0.000000 0.000000
											CHANNELS 3 Xrotation Yrotation Zrotation
											JOINT RightHand
											{
												OFFSET -18.483803 0.000000 0.000001
												CHANNELS 3 Xrotation Yrotation Zrotation
												End Site
												{
													OFFSET 0 0 0
												}
											}
										}
									}
								}
							}
						}
					}
				}
			}
		}
	}
}
MOTION
Frames: 10
Frame Time: 0.03333333
2.106500 32.664566 1.795231 0.000000 0.000000 0.000000 -4.682263 7.392088 6.670154 -20.477404 -1.742020 0.574894 27.913330 6.878384 -1.648375 -3.403238 9.679150 -5.094985 -3.807322 -0.201856 -1.956669 0.000000 0.000000 0.000000 -6.166852 12.020638 6.553502 23.663687 -13.149636 -7.875089 18.662741 -9.431234 -0.772233 -25.228794 -33.099896 24.410471 -3.224736 -0.031608 -0.462555 0.000000 0.000000 0.000000 -3.513930 6.616885 6.345008 5.121921 2.603364 12.300466 7.469854 6.023789 1.388533 0.680152 -0.348901 0.308399 0.000000 0.000000 0.000000 0.672440 5.588251 3.067109 -14.313940 -10.369451 -4.398550 5.025590 -12.034611 -4.708164 0.000000 0.000000 0.000000 0.547106 5.643516 2.026851 -0.524928 2.806169 19.236536 -0.864769 -0.461450 -2.635135 -37.018201 2.171735 -10.060205 -22.351101 -29.614443 8.222866 0.000000 0.000000 0.000000 -0.962913 5.223993 2.565228 5.890870 0.858416 -1.019070 -0.224598 2.649034 1.788188 37.991496 -48.380081 68.082725 -13.745123 31.456006 39.713107 0.000000 0.000000 0.000000 
1.905930 32.163109 1.800997 0.000000 0.000000 0.000000 -3.652478 18.422354 5.507173 -27.770311 -7.147390 -0.565512 29.382002 4.977832 -1.605790 -0.123948 7.814442 -6.928962 -4.088676 0.444594 -2.117388 0.000000 0.000000 0.000000 -5.140006 22.461408 5.561555 28.287186 -18.871053 -3.561347 13.348153 -10.170074 -1.295481 -24.160722 -32.622339 26.900939 -3.472264 -0.044101 0.269459 0.000000 0.000000 0.000000 -1.452376 16.550829 5.354582 2.453513 4.222166 11.128501 6.559654 7.337548 0.141140 0.729356 -0.326496 0.172435 0.000000 0.000000 0.000000 0.186266 6.859357 1.861799 -17.789673 -15.834069 -1.387427 7.681990 -17.880925 -2.888054 0.000000 0.000000 0.000000 -0.010968 7.001044 0.515291 -1.737917 9.085152 17.728985 -1.036720 -1.047179 -2.893054 -49.787616 5.748207 -13.799396 -27.153610 -29.743783 6.654643 0.000000 0.000000 0.000000 -1.017053 6.698411 1.208207 5.583022 0.981979 -0.999420 -1.120445 2.807826 2.502863 34.751811 -52.211182 71.138462 -13.999213 36.432174 38.878099 0.000000 0.000000 0.000000 
1.634937 31.713396 1.833946 0.000000 0.000000 0.000000 -1.776545 27.957537 4.242707 -35.784594 -11.808246 -2.891954 30.910233 3.698990 -1.706242 3.872815 6.253256 -7.477995 -3.677843 0.899134 -2.462125 0.000000 0.000000 0.000000 -3.136992 31.600591 4.461398 31.680166 -24.230868 0.341210 9.125437 -10.561720 -1.494686 -23.216908 -31.693058 28.729575 -3.848779 0.062067 0.764140 0.000000 0.000000 0.000000 0.736813 25.171610 4.252737 -0.027909 5.916484 9.794701 5.891959 8.481376 -1.266136 0.594378 -0.478304 0.108978 0.000000 0.000000 0.000000 0.033094 8.007014 0.375615 -21.109862 -20.817734 1.886919 10.311829 -22.316031 -0.721087 0.000000 0.000000 0.000000 -0.246680 8.145357 -1.076430 -2.353953 13.222405 13.927504 -0.333763 -1.883661 -2.157270 -58.800101 7.006425 -19.280407 -31.537606 -28.480946 3.952282 0.000000 0.000000 0.000000 -0.771731 7.966531 -0.240202 5.349157 2.104305 0.410828 -2.008289 3.234145 2.911782 27.418717 -50.462083 69.134977 -10.566263 39.897543 34.358710 0.000000 0.000000 0.000000 
1.319268 31.340654 1.791477 0.000000 0.000000 0.000000 0.709025 35.814876 2.833588 -43.176423 -15.306124 -6.189009 31.419331 3.037328 -1.725931 7.923599 5.253026 -7.024654 -2.748656 1.143495 -2.689148 0.000000 0.000000 0.000000 -0.411768 39.055435 3.110159 34.122293 -28.888859 3.467979 6.091485 -10.672881 -1.536770 -22.936798 -30.635120 29.443941 -4.359121 0.188023 1.043847 0.000000 0.000000 0.000000 2.793708 32.619098 3.052400 -2.199047 7.530210 8.266620 5.585179 9.461549 -2.504235 0.522770 -0.886715 -0.012932 0.000000 0.000000 0.000000 0.236821 8.968450 -0.985496 -24.457442 -25.042648 4.594255 12.548307 -25.394105 1.426267 0.000000 0.000000 0.000000 -0.209679 9.116317 -2.323470 -2.438432 15.426134 8.312565 0.357973 -2.830103 -0.895619 -64.201586 7.544353 -25.287252 -35.352226 -26.640700 0.096621 0.000000 0.000000 0.000000 -0.205302 9.017619 -1.456590 5.100323 4.070574 2.768035 -2.955951 3.122367 3.048287 18.175859 -43.447540 63.158862 -4.189650 40.185100 26.954005 0.000000 0.000000 0.000000 
0.990784 31.020615 1.703140 0.000000 0.000000 0.000000 3.443656 42.025604 1.359960 -49.298154 -17.736651 -9.988020 30.762749 2.355874 -1.494615 11.845765 4.539561 -6.829876 -1.872898 1.206746 -2.753961 0.000000 0.000000 0.000000 2.560259 44.954188 1.570606 35.774929 -32.503422 5.684116 4.359920 -10.594841 -1.597586 -23.397694 -29.716176 28.817084 -4.998066 0.237934 1.174237 0.000000 0.000000 0.000000 4.830339 38.922017 1.665836 -3.942133 8.946119 6.602335 5.593357 10.253927 -3.350322 0.374301 -0.989928 -0.120821 0.000000 0.000000 0.000000 0.853128 9.743742 -1.949253 -27.862623 -28.207621 6.095555 14.293825 -27.303983 3.247641 0.000000 0.000000 0.000000 0.064061 9.933847 -3.031211 -2.158116 16.074534 1.685355 0.445118 -2.990616 0.314780 -65.914570 8.829047 -30.306297 -38.623142 -26.246021 -5.144567 0.000000 0.000000 0.000000 0.582579 9.793043 -2.259824 4.789720 6.534271 5.241387 -4.010614 2.218479 2.636728 9.488532 -33.257707 55.451307 2.241501 37.231197 19.507652 0.000000 0.000000 0.000000 
0.698448 30.717241 1.533827 0.000000 0.000000 0.000000 6.107118 46.961020 -0.156697 -54.084962 -19.378288 -13.764683 29.140992 1.516107 -0.951369 15.355397 3.771207 -7.206267 -1.917172 1.133095 -2.379268 0.000000 0.000000 0.000000 5.553168 49.509770 -0.175000 36.659070 -35.015648 6.988633 3.893903 -10.322987 -1.681290 -24.277298 -28.912744 27.189064 -5.421174 0.193982 1.201521 0.000000 0.000000 0.000000 6.801715 44.525563 0.087316 -5.126141 10.102820 4.920594 5.801701 10.859786 -3.799621 0.491187 -1.067844 -0.282130 0.000000 0.000000 0.000000 1.796470 10.306033 -2.437454 -31.008454 -30.115411 6.249690 15.544799 -28.059027 4.424907 0.000000 0.000000 0.000000 0.393495 10.591883 -3.219204 -1.768128 16.065423 -5.046877 -0.330923 -2.355094 1.241626 -65.417189 12.421132 -33.547243 -41.260978 -28.157395 -11.560595 0.000000 0.000000 0.000000 1.432269 10.325231 -2.675972 4.486616 8.882730 7.021595 -5.261943 0.542274 2.225605 1.962047 -22.803273 47.370753 6.607202 32.559737 13.931085 0.000000 0.000000 0.000000 
0.448139 30.402309 1.346193 0.000000 0.000000 0.000000 8.705716 50.874545 -1.815634 -57.984092 -20.406051 -17.147043 27.416495 0.716413 -0.269308 18.383295 2.897744 -8.004927 -2.140791 0.990839 -2.030317 0.000000 0.000000 0.000000 8.477983 53.167726 -2.138695 36.849718 -36.627917 7.605433 4.563146 -9.777006 -1.787543 -25.004305 -28.118337 25.475241 -5.497400 0.116336 1.067552 0.000000 0.000000 0.000000 8.860763 49.302662 -1.695499 -5.879261 10.965213 3.438359 5.984684 11.254419 -3.920145 0.764739 -0.734000 -0.340722 0.000000 0.000000 0.000000 2.852137 10.650194 -2.574830 -33.481731 -30.813483 5.465246 16.439487 -27.944635 4.909383 0.000000 0.000000 0.000000 0.719494 11.096648 -3.115748 -1.360366 16.189611 -11.137312 -1.927385 -1.341404 1.690578 -64.300903 18.161801 -35.495612 -43.547387 -32.588171 -18.902876 0.000000 0.000000 0.000000 2.203151 10.628049 -2.880844 4.273926 10.775049 7.661934 -6.586201 -1.102720 1.896824 -4.978895 -14.868325 39.635417 8.514603 28.620941 10.438814 0.000000 0.000000 0.000000 
0.233700 30.089970 1.131586 0.000000 0.000000 0.000000 11.293300 53.878537 -3.643392 -61.381687 -20.914565 -19.898679 26.173445 0.043126 0.327620 20.892015 1.997067 -8.902589 -2.100181 0.851711 -1.858033 0.000000 0.000000 0.000000 11.412572 56.201713 -4.360072 36.367014 -37.600874 7.724748 6.060412 -8.959411 -1.843760 -25.322684 -27.279188 24.304286 -5.179054 0.068701 0.779263 0.000000 0.000000 0.000000 11.124739 53.160476 -3.730425 -6.377242 11.566231 2.257523 6.023985 11.422714 -3.877469 1.103053 -0.319633 -0.289346 0.000000 0.000000 0.000000 3.888155 10.790125 -2.585840 -34.886120 -30.640194 4.427491 17.023649 -27.074020 4.791101 0.000000 0.000000 0.000000 0.989475 11.387495 -2.949355 -0.887680 16.867593 -16.053579 -2.863176 -0.407330 2.053434 -63.551516 24.418681 -36.665159 -45.766212 -39.216747 -26.960794 0.000000 0.000000 0.000000 2.764247 10.720106 -3.048064 4.234893 12.101657 7.015161 -7.560723 -2.324337 1.510695 -12.262427 -10.616131 33.027025 8.712258 27.025897 8.382658 0.000000 0.000000 0.000000 
0.036886 29.788357 0.942427 0.000000 0.000000 0.000000 13.845790 56.311495 -5.618049 -64.394539 -20.902867 -21.787714 25.472608 -0.184815 0.612617 22.680401 1.253883 -9.316834 -2.029083 0.788442 -1.742522 0.000000 0.000000 0.000000 14.366400 58.534065 -6.772345 35.391366 -38.226096 7.667497 8.024004 -8.017011 -1.829131 -25.301964 -26.453200 23.811646 -4.241122 0.087100 0.418325 0.000000 0.000000 0.000000 13.558808 56.200873 -5.947783 -6.815874 11.936944 1.396470 5.874443 11.382284 -3.824068 1.250974 -0.141270 -0.105878 0.000000 0.000000 0.000000 4.703132 10.714992 -2.617716 -35.205165 -30.083964 3.735827 17.215253 -25.822281 4.247836 0.000000 0.000000 0.000000 1.160604 11.456414 -2.870209 -0.338981 18.184231 -19.446249 -3.128667 -0.364763 2.632767 -64.187304 29.519330 -36.984023 -46.870565 -45.865608 -33.884340 0.000000 0.000000 0.000000 3.132297 10.621048 -3.287102 4.294948 12.879873 5.455380 -8.068748 -2.914915 1.348688 -19.815299 -9.621769 28.044393 8.144306 28.590820 7.051035 0.000000 0.000000 0.000000 
-0.138527 29.529739 0.827181 0.000000 0.000000 0.000000 16.296299 58.202214 -7.577900 -66.969342 -20.482450 -22.988286 25.291134 0.077135 0.588811 23.849513 0.906047 -9.081367 -1.785387 0.800182 -1.790204 0.000000 0.000000 0.000000 17.132898 60.126551 -9.067563 34.105245 -38.728511 7.584831 9.958863 -7.105866 -1.762691 -25.261823 -25.706226 23.728256 -2.821137 0.181789 0.147716 0.000000 0.000000 0.000000 16.167459 58.280563 -8.228033 -7.347632 12.120316 0.767710 5.533453 11.145357 -3.774081 1.086338 -0.073300 0.075844 0.000000 0.000000 0.000000 5.218104 10.463295 -2.756124 -34.787530 -29.599345 3.687981 16.915143 -24.771088 3.617417 0.000000 0.000000 0.000000 1.300177 11.314258 -2.910338 0.195039 19.637248 -21.297486 -2.432399 -0.668021 3.339164 -65.891231 31.949327 -36.754662 -45.901569 -51.210081 -38.155663 0.000000 0.000000 0.000000 3.316024 10.339176 -3.583202 4.374108 13.399409 3.591012 -8.059922 -3.132132 1.211143 -26.859365 -11.160114 24.936078 7.490565 33.163495 6.073596 0.000000 0.000000 0.000000 
